<?xml version="1.0" encoding="utf-8"?>
<!-- Generator: Adobe Illustrator 16.0.0, SVG Export Plug-In . SVG Version: 6.00 Build 0)  -->
<!DOCTYPE svg PUBLIC "-//W3C//DTD SVG 1.1//EN" "http://www.w3.org/Graphics/SVG/1.1/DTD/svg11.dtd">
<svg version="1.1" id="Layer_1" xmlns="http://www.w3.org/2000/svg" xmlns:xlink="http://www.w3.org/1999/xlink" x="0px" y="0px"
	 width="243.796px" height="74.796px" viewBox="0 0 243.796 74.796" enable-background="new 0 0 243.796 74.796"
	 xml:space="preserve">
<rect x="20" y="20" fill="#A7A9AC" width="203.796" height="34.796"/>
<path d="M0,0v74.796h243.796V0H0z M223.796,54.796H20V20h203.796V54.796z"/>
<rect x="195.796" y="27.796" width="20" height="20"/>
<g>
	<path fill="#FFFFFF" d="M32.77,31.704c0-0.252,0.216-0.396,0.72-0.396h0.648c0.432,0,0.648,0.126,0.756,0.324l3.403,5.905
		l0.468,1.135l0.468-1.026l3.403-6.014c0.108-0.198,0.324-0.324,0.756-0.324h0.594c0.504,0,0.72,0.144,0.72,0.396v11.883
		c0,0.252-0.216,0.396-0.72,0.396h-0.126c-0.504,0-0.72-0.144-0.72-0.396V33.9l-3.619,6.302c-0.09,0.162-0.198,0.234-0.396,0.234
		h-0.72c-0.18,0-0.306-0.072-0.396-0.234l-3.673-6.41v9.795c0,0.252-0.216,0.396-0.72,0.396H33.49c-0.504,0-0.72-0.144-0.72-0.396
		V31.704z"/>
	<path fill="#FFFFFF" d="M48.07,31.704c0-0.252,0.216-0.396,0.72-0.396h0.144c0.504,0,0.72,0.144,0.72,0.396v11.883
		c0,0.252-0.216,0.396-0.72,0.396H48.79c-0.504,0-0.72-0.144-0.72-0.396V31.704z"/>
	<path fill="#FFFFFF" d="M53.146,31.704c0-0.252,0.216-0.396,0.72-0.396h0.144c0.504,0,0.72,0.144,0.72,0.396v5.51h0.072l4.43-5.654
		c0.162-0.198,0.576-0.252,0.972-0.252h0.18c0.432,0,0.63,0.108,0.63,0.234c0,0.09-0.054,0.216-0.18,0.36l-4.501,5.618l5.456,5.924
		c0.126,0.144,0.162,0.216,0.162,0.288c0,0.198-0.234,0.252-0.792,0.252h-0.216c-0.396,0-0.774,0-0.99-0.234l-5.15-5.797H54.73
		v5.635c0,0.252-0.216,0.396-0.72,0.396h-0.144c-0.504,0-0.72-0.144-0.72-0.396V31.704z"/>
	<path fill="#FFFFFF" d="M63.514,31.884c0-0.378,0.162-0.54,0.54-0.54h6.284c0.252,0,0.36,0.162,0.36,0.54v0.288
		c0,0.378-0.108,0.54-0.36,0.54h-5.24v4.105h4.699c0.252,0,0.36,0.162,0.36,0.54v0.288c0,0.378-0.108,0.54-0.36,0.54h-4.699v4.394
		h5.257c0.252,0,0.36,0.162,0.36,0.54v0.288c0,0.378-0.108,0.54-0.36,0.54h-6.302c-0.378,0-0.54-0.162-0.54-0.54V31.884z"/>
	<path fill="#FFFFFF" d="M77.535,31.704c0-0.252,0.216-0.396,0.72-0.396h0.648c0.432,0,0.648,0.126,0.756,0.324l3.403,5.905
		l0.468,1.135l0.468-1.026l3.403-6.014c0.108-0.198,0.324-0.324,0.756-0.324h0.594c0.504,0,0.72,0.144,0.72,0.396v11.883
		c0,0.252-0.216,0.396-0.72,0.396h-0.126c-0.504,0-0.72-0.144-0.72-0.396V33.9l-3.619,6.302c-0.09,0.162-0.198,0.234-0.396,0.234
		h-0.72c-0.18,0-0.306-0.072-0.396-0.234l-3.673-6.41v9.795c0,0.252-0.216,0.396-0.72,0.396h-0.126c-0.504,0-0.72-0.144-0.72-0.396
		V31.704z"/>
	<path fill="#FFFFFF" d="M97.948,31.235c1.783,0,3.439,0.63,3.439,1.116c0,0.306-0.378,1.044-0.612,1.044
		c-0.198,0-1.062-0.792-2.791-0.792c-2.881,0-4.231,1.512-4.231,5.06c0,3.457,1.333,5.023,4.16,5.023c1.854,0,2.863-0.9,3.097-0.9
		s0.63,0.756,0.63,0.972c0,0.486-1.621,1.296-3.727,1.296c-3.943,0-5.798-2.017-5.798-6.41
		C92.115,33.342,94.095,31.235,97.948,31.235z"/>
	<path fill="#FFFFFF" d="M103.851,31.704c0-0.252,0.216-0.396,0.72-0.396h0.648c0.432,0,0.648,0.126,0.756,0.324l3.403,5.905
		l0.468,1.135l0.468-1.026l3.403-6.014c0.108-0.198,0.324-0.324,0.756-0.324h0.594c0.504,0,0.72,0.144,0.72,0.396v11.883
		c0,0.252-0.216,0.396-0.72,0.396h-0.126c-0.504,0-0.72-0.144-0.72-0.396V33.9l-3.619,6.302c-0.09,0.162-0.198,0.234-0.396,0.234
		h-0.72c-0.18,0-0.306-0.072-0.396-0.234l-3.673-6.41v9.795c0,0.252-0.216,0.396-0.72,0.396h-0.126c-0.504,0-0.72-0.144-0.72-0.396
		V31.704z"/>
	<path fill="#FFFFFF" d="M123.976,31.235c3.619,0,5.564,2.161,5.564,6.374s-1.945,6.446-5.564,6.446
		c-3.601,0-5.545-2.232-5.545-6.446S120.375,31.235,123.976,31.235z M127.901,37.609c0-3.313-1.386-5.005-3.925-5.005
		c-2.539,0-3.907,1.692-3.907,5.005s1.369,5.078,3.907,5.078C126.515,42.687,127.901,40.922,127.901,37.609z"/>
	<path fill="#FFFFFF" d="M132.182,31.704c0-0.252,0.216-0.396,0.72-0.396h0.378c0.396,0,0.576,0.09,0.756,0.342l5.744,8.679
		l0.54,1.008v-9.633c0-0.252,0.216-0.396,0.72-0.396h0.126c0.504,0,0.72,0.144,0.72,0.396v11.883c0,0.252-0.216,0.396-0.72,0.396
		h-0.36c-0.342,0-0.522-0.09-0.63-0.252l-5.942-8.967l-0.486-0.918v9.741c0,0.252-0.216,0.396-0.72,0.396h-0.126
		c-0.504,0-0.72-0.144-0.72-0.396V31.704z"/>
	<path fill="#FFFFFF" d="M143.773,43.425l4.268-11.83c0.072-0.216,0.36-0.288,0.72-0.288h0.522c0.36,0,0.648,0.072,0.72,0.288
		l4.267,11.848c0.036,0.09,0.054,0.162,0.054,0.234c0,0.18-0.233,0.306-0.774,0.306h-0.144c-0.36,0-0.648-0.072-0.72-0.288
		l-1.062-2.953h-5.294l-1.026,2.953c-0.072,0.216-0.36,0.288-0.72,0.288h-0.09c-0.54,0-0.774-0.108-0.774-0.306
		C143.72,43.605,143.737,43.533,143.773,43.425z M151.138,39.374l-1.891-5.366l-0.234-1.044l-0.288,1.044l-1.891,5.366H151.138z"/>
	<path fill="#FFFFFF" d="M161.397,31.235c1.783,0,3.439,0.63,3.439,1.116c0,0.306-0.378,1.044-0.612,1.044
		c-0.198,0-1.062-0.792-2.791-0.792c-3.188,0-4.231,1.854-4.231,4.987c0,2.755,0.829,5.096,4.033,5.096
		c0.937,0,1.837-0.108,2.323-0.234v-3.637h-2.106c-0.253,0-0.36-0.162-0.36-0.541v-0.288c0-0.378,0.107-0.54,0.36-0.54h3.15
		c0.378,0,0.54,0.162,0.54,0.54v4.771c0,1.008-1.962,1.296-4.015,1.296c-3.583,0-5.563-2.017-5.563-6.302
		C155.564,33.27,157.635,31.235,161.397,31.235z"/>
	<path fill="#FFFFFF" d="M168.38,31.704c0-0.252,0.217-0.396,0.721-0.396h0.144c0.505,0,0.721,0.144,0.721,0.396v10.875h4.951
		c0.252,0,0.36,0.162,0.36,0.54v0.288c0,0.378-0.108,0.54-0.36,0.54h-5.995c-0.379,0-0.541-0.162-0.541-0.54V31.704z"/>
	<path fill="#FFFFFF" d="M177.092,31.884c0-0.378,0.162-0.54,0.541-0.54h6.283c0.252,0,0.36,0.162,0.36,0.54v0.288
		c0,0.378-0.108,0.54-0.36,0.54h-5.239v4.105h4.699c0.252,0,0.36,0.162,0.36,0.54v0.288c0,0.378-0.108,0.54-0.36,0.54h-4.699v4.394
		h5.258c0.252,0,0.359,0.162,0.359,0.54v0.288c0,0.378-0.107,0.54-0.359,0.54h-6.302c-0.379,0-0.541-0.162-0.541-0.54V31.884z"/>
</g>
<g display="none">
	<path display="inline" d="M36.707,48.637c1.102,0,2.616,0.351,2.616,0.876c0,0.351-0.5,1.177-0.813,1.177
		c-0.15,0-0.651-0.4-1.841-0.4c-1.477,0-2.165,0.939-2.165,2.817s0.701,2.854,2.14,2.854c1.189,0,1.866-0.5,2.053-0.5
		c0.401,0,0.738,0.876,0.738,1.089c0,0.751-1.79,1.051-2.792,1.051c-2.804,0-4.119-1.415-4.119-4.507
		C32.525,50.114,33.928,48.637,36.707,48.637z"/>
	<path display="inline" d="M40.577,49.238c0-0.351,0.15-0.5,0.501-0.5h2.441c2.166,0,3.117,0.851,3.117,2.354
		c0,0.964-0.601,1.665-1.465,1.99v0.05c0.313,0.125,0.689,0.614,0.901,1.151l1.102,2.755c0.038,0.1,0.062,0.175,0.062,0.238
		c0,0.15-0.238,0.25-0.751,0.25h-0.513c-0.363,0-0.651-0.062-0.726-0.263l-0.989-2.441c-0.25-0.501-0.451-0.751-1.265-0.751h-0.489
		v3.054c0,0.264-0.225,0.401-0.751,0.401h-0.425c-0.526,0-0.751-0.137-0.751-0.401V49.238z M43.695,52.405
		c0.513,0,0.964-0.476,0.964-1.077c0-0.576-0.4-0.952-1.052-0.952h-1.102v2.028H43.695z"/>
	<path display="inline" d="M48.215,49.238c0-0.351,0.151-0.5,0.501-0.5h4.583c0.263,0,0.375,0.188,0.375,0.625v0.388
		c0,0.438-0.112,0.626-0.375,0.626h-3.155v1.816h2.817c0.263,0,0.376,0.188,0.376,0.625v0.388c0,0.438-0.113,0.626-0.376,0.626
		h-2.817v2.028h3.167c0.263,0,0.375,0.188,0.375,0.626v0.389c0,0.438-0.112,0.625-0.375,0.625h-4.595c-0.35,0-0.501-0.15-0.501-0.5
		V49.238z"/>
	<path display="inline" d="M54.239,57.025l2.754-8.05c0.075-0.2,0.351-0.263,0.713-0.263h0.651c0.363,0,0.639,0.063,0.713,0.263
		l2.754,8.05c0.025,0.088,0.037,0.163,0.037,0.225c0,0.175-0.188,0.275-0.625,0.275h-0.551c-0.363,0-0.638-0.062-0.701-0.263
		l-0.5-1.527H56.53l-0.501,1.527c-0.062,0.188-0.275,0.263-0.576,0.263h-0.5c-0.526,0-0.764-0.1-0.764-0.275
		C54.189,57.188,54.214,57.113,54.239,57.025z M58.946,54.083l-0.714-2.228c-0.062-0.163-0.188-0.801-0.188-0.801h-0.05
		c0,0-0.112,0.588-0.188,0.801l-0.739,2.228H58.946z"/>
	<path display="inline" d="M64.331,50.377H62.34c-0.263,0-0.375-0.188-0.375-0.626v-0.388c0-0.438,0.113-0.625,0.375-0.625h5.922
		c0.263,0,0.375,0.188,0.375,0.625v0.388c0,0.438-0.112,0.626-0.375,0.626h-1.991v6.748c0,0.264-0.225,0.401-0.751,0.401h-0.438
		c-0.526,0-0.751-0.137-0.751-0.401V50.377z"/>
	<path display="inline" d="M69.529,49.112c0-0.263,0.226-0.413,0.751-0.413h0.438c0.526,0,0.751,0.15,0.751,0.413v8.012
		c0,0.264-0.225,0.414-0.751,0.414H70.28c-0.526,0-0.751-0.15-0.751-0.414V49.112z"/>
	<path display="inline" d="M72.384,49.213c-0.025-0.088-0.05-0.163-0.05-0.225c0-0.176,0.238-0.276,0.764-0.276h0.414
		c0.363,0,0.651,0.087,0.739,0.363l1.828,5.859h0.05l1.877-5.859c0.088-0.263,0.375-0.363,0.738-0.363h0.389
		c0.526,0,0.751,0.1,0.751,0.276c0,0.062-0.013,0.137-0.038,0.225l-2.704,8.05c-0.062,0.2-0.338,0.263-0.701,0.263h-0.651
		c-0.363,0-0.639-0.062-0.701-0.263L72.384,49.213z"/>
	<path display="inline" d="M80.861,49.238c0-0.351,0.151-0.5,0.501-0.5h4.583c0.263,0,0.375,0.188,0.375,0.625v0.388
		c0,0.438-0.112,0.626-0.375,0.626h-3.155v1.816h2.817c0.263,0,0.376,0.188,0.376,0.625v0.388c0,0.438-0.113,0.626-0.376,0.626
		h-2.817v2.028h3.167c0.263,0,0.375,0.188,0.375,0.626v0.389c0,0.438-0.112,0.625-0.375,0.625h-4.595c-0.35,0-0.501-0.15-0.501-0.5
		V49.238z"/>
	<path display="inline" d="M90.892,55.385c0.225,0,0.838,0.576,1.84,0.576c0.538,0,1.176-0.162,1.176-0.914
		c0-1.477-3.618-0.901-3.618-3.843c0-1.84,1.502-2.566,2.967-2.566c1.327,0,2.253,0.463,2.253,0.876
		c0,0.338-0.388,1.089-0.688,1.089c-0.163,0-0.551-0.312-1.39-0.312c-0.976,0-1.165,0.451-1.165,0.739
		c0,1.427,3.618,0.851,3.618,3.793c0,2.078-1.464,2.779-2.829,2.779c-1.903,0-2.942-0.676-2.942-1.102
		C90.115,56.111,90.628,55.385,90.892,55.385z"/>
	<path display="inline" d="M96.965,49.238c0-0.351,0.151-0.5,0.501-0.5h4.583c0.263,0,0.375,0.188,0.375,0.625v0.388
		c0,0.438-0.112,0.626-0.375,0.626h-3.155v1.816h2.817c0.263,0,0.376,0.188,0.376,0.625v0.388c0,0.438-0.113,0.626-0.376,0.626
		h-2.817v2.028h3.167c0.264,0,0.376,0.188,0.376,0.626v0.389c0,0.438-0.112,0.625-0.376,0.625h-4.594c-0.35,0-0.501-0.15-0.501-0.5
		V49.238z"/>
	<path display="inline" d="M103.802,49.238c0-0.351,0.151-0.5,0.501-0.5h2.441c2.166,0,3.117,0.851,3.117,2.354
		c0,0.964-0.601,1.665-1.464,1.99v0.05c0.313,0.125,0.688,0.614,0.901,1.151l1.102,2.755c0.038,0.1,0.062,0.175,0.062,0.238
		c0,0.15-0.238,0.25-0.751,0.25h-0.513c-0.363,0-0.651-0.062-0.726-0.263l-0.989-2.441c-0.25-0.501-0.451-0.751-1.265-0.751h-0.488
		v3.054c0,0.264-0.225,0.401-0.751,0.401h-0.425c-0.526,0-0.752-0.137-0.752-0.401V49.238z M106.92,52.405
		c0.513,0,0.964-0.476,0.964-1.077c0-0.576-0.401-0.952-1.052-0.952h-1.102v2.028H106.92z"/>
	<path display="inline" d="M110.689,49.213c-0.025-0.088-0.05-0.163-0.05-0.225c0-0.176,0.238-0.276,0.764-0.276h0.413
		c0.363,0,0.651,0.087,0.739,0.363l1.828,5.859h0.05l1.878-5.859c0.088-0.263,0.375-0.363,0.738-0.363h0.389
		c0.526,0,0.751,0.1,0.751,0.276c0,0.062-0.013,0.137-0.038,0.225l-2.705,8.05c-0.062,0.2-0.337,0.263-0.701,0.263h-0.651
		c-0.363,0-0.639-0.062-0.701-0.263L110.689,49.213z"/>
	<path display="inline" d="M119.091,49.112c0-0.263,0.226-0.413,0.751-0.413h0.438c0.526,0,0.751,0.15,0.751,0.413v8.012
		c0,0.264-0.225,0.414-0.751,0.414h-0.438c-0.526,0-0.751-0.15-0.751-0.414V49.112z"/>
	<path display="inline" d="M126.58,48.637c1.102,0,2.616,0.351,2.616,0.876c0,0.351-0.5,1.177-0.813,1.177
		c-0.151,0-0.651-0.4-1.841-0.4c-1.477,0-2.166,0.939-2.166,2.817s0.701,2.854,2.141,2.854c1.189,0,1.866-0.5,2.053-0.5
		c0.401,0,0.738,0.876,0.738,1.089c0,0.751-1.79,1.051-2.792,1.051c-2.804,0-4.119-1.415-4.119-4.507
		C122.398,50.114,123.8,48.637,126.58,48.637z"/>
	<path display="inline" d="M130.449,49.238c0-0.351,0.15-0.5,0.501-0.5h4.582c0.263,0,0.375,0.188,0.375,0.625v0.388
		c0,0.438-0.113,0.626-0.375,0.626h-3.155v1.816h2.817c0.262,0,0.375,0.188,0.375,0.625v0.388c0,0.438-0.113,0.626-0.375,0.626
		h-2.817v2.028h3.167c0.263,0,0.376,0.188,0.376,0.626v0.389c0,0.438-0.113,0.625-0.376,0.625h-4.594c-0.351,0-0.501-0.15-0.501-0.5
		V49.238z"/>
	<path display="inline" d="M137.474,55.385c0.225,0,0.839,0.576,1.84,0.576c0.538,0,1.177-0.162,1.177-0.914
		c0-1.477-3.618-0.901-3.618-3.843c0-1.84,1.502-2.566,2.967-2.566c1.327,0,2.253,0.463,2.253,0.876
		c0,0.338-0.388,1.089-0.688,1.089c-0.163,0-0.551-0.312-1.39-0.312c-0.977,0-1.165,0.451-1.165,0.739
		c0,1.427,3.618,0.851,3.618,3.793c0,2.078-1.464,2.779-2.829,2.779c-1.903,0-2.942-0.676-2.942-1.102
		C136.698,56.111,137.211,55.385,137.474,55.385z"/>
</g>
</svg>
